HIERARCHY
ROOT SimulationBone
{
	OFFSET 0.000000 0.000000 0.000000
	CHANNELS 6 Xposition Yposition Zposition Zrotation Yrotation Xrotation 
	JOINT Hips
	{
		OFFSET 0.000000 0.000000 0.000000
		CHANNELS 6 Xposition Yposition Zposition Zrotation Yrotation Xrotation 
		JOINT LeftUpLeg
		{
			OFFSET 0.103456 1.857826 10.548504
			CHANNELS 3 Zrotation Yrotation Xrotation
			JOINT LeftLeg
			{
				OFFSET 43.499996 -0.000038 0.000006
				CHANNELS 3 Zrotation Yrotation Xrotation
				JOINT LeftFoot
				{
					OFFSET 42.372192 0.000011 -0.000004
					CHANNELS 3 Zrotation Yrotation Xrotation
					JOINT LeftToe
					{
						OFFSET 17.300018 0.000006 0.000004
						CHANNELS 3 Zrotation Yrotation Xrotation
						End Site
						{
							OFFSET 0.000000 0.000000 0.000000
						}
					}
				}
			}
		}
		JOINT RightUpLeg
		{
			OFFSET 0.103455 1.857819 -10.548502
			CHANNELS 3 Zrotation Yrotation Xrotation
			JOINT RightLeg
			{
				OFFSET 43.500038 -0.000031 0.000011
				CHANNELS 3 Zrotation Yrotation Xrotation
				JOINT RightFoot
				{
					OFFSET 42.372261 -0.000008 0.000014
					CHANNELS 3 Zrotation Yrotation Xrotation
					JOINT RightToe
					{
						OFFSET 17.299999 -0.000004 0.000004
						CHANNELS 3 Zrotation Yrotation Xrotation
						End Site
						{
							OFFSET 0.000000 0.000000 0.000000
						}
					}
				}
			}
		}
		JOINT Spine
		{
			OFFSET 6.901965 -2.603737 -0.000000
			CHANNELS 3 Zrotation Yrotation Xrotation
			JOINT Spine1
			{
				OFFSET 12.588105 0.000013 0.000001
				CHANNELS 3 Zrotation Yrotation Xrotation
				JOINT Spine2
				{
					OFFSET 12.343203 0.000010 -0.000000
					CHANNELS 3 Zrotation Yrotation Xrotation
					JOINT Neck
					{
						OFFSET 25.832893 -0.000038 0.000001
						CHANNELS 3 Zrotation Yrotation Xrotation
						JOINT Head
						{
							OFFSET 11.766606 0.000028 0.000001
							CHANNELS 3 Zrotation Yrotation Xrotation
							End Site
							{
								OFFSET 0.000000 0.000000 0.000000
							}
						}
					}
					JOINT LeftShoulder
					{
						OFFSET 19.745897 -1.480375 6.000107
						CHANNELS 3 Zrotation Yrotation Xrotation
						JOINT LeftArm
						{
							OFFSET 11.284126 -0.000009 -0.000017
							CHANNELS 3 Zrotation Yrotation Xrotation
							JOINT LeftForeArm
							{
								OFFSET 33.000046 0.000006 0.000030
								CHANNELS 3 Zrotation Yrotation Xrotation
								JOINT LeftHand
								{
									OFFSET 25.200006 0.000034 0.000015
									CHANNELS 3 Zrotation Yrotation Xrotation
									End Site
									{
										OFFSET 0.000000 0.000000 0.000000
									}
								}
							}
						}
					}
					JOINT RightShoulder
					{
						OFFSET 19.746096 -1.480394 -6.000075
						CHANNELS 3 Zrotation Yrotation Xrotation
						JOINT RightArm
						{
							OFFSET 11.284135 -0.000006 -0.000006
							CHANNELS 3 Zrotation Yrotation Xrotation
							JOINT RightForeArm
							{
								OFFSET 33.000095 0.000018 0.000006
								CHANNELS 3 Zrotation Yrotation Xrotation
								JOINT RightHand
								{
									OFFSET 25.199783 0.000116 0.000436
									CHANNELS 3 Zrotation Yrotation Xrotation
									End Site
									{
										OFFSET 0.000000 0.000000 0.000000
									}
								}
							}
						}
					}
				}
			}
		}
	}
}
MOTION
Frames: 14
Frame Time: 0.016667
-101.268676 0.000000 633.141638 0.000000 72.554267 0.000000 -10.454129 84.450135 1.375081 84.887550 3.876543 -178.296431 124.115035 -8.519498 177.165679 -52.540549 3.981477 -1.265890 80.477554 -2.018566 -11.573450 21.454554 0.003096 0.000002 165.264173 -1.382174 -172.108772 -46.889699 1.644721 11.879314 105.397445 -7.734481 14.129357 21.454560 -0.003104 -0.000018 15.198523 1.115863 1.341440 20.412151 1.977387 2.859095 20.094286 1.994748 2.847127 -14.616667 -4.473490 -0.458718 -23.158787 1.922059 -3.149372 152.263345 -79.427030 26.697557 -20.835863 62.649673 24.726496 -42.761319 -17.112241 1.670892 10.988519 -9.238256 6.732049 101.586028 71.984356 -78.469168 -43.765199 -41.868194 23.895931 -57.266960 14.340491 -1.985694 8.816056 12.372660 -21.405923 
-101.203199 0.000000 632.960929 0.000000 72.115461 0.000000 -10.647937 84.365303 1.439226 84.088413 4.365588 -178.962570 124.671401 -9.146001 177.470281 -46.546266 3.446037 0.305002 81.517931 -3.055246 -11.774765 21.454553 0.003092 0.000001 164.611493 -2.162094 -173.083537 -46.396726 1.611494 11.924496 105.769611 -7.802424 14.103094 21.454558 -0.003102 -0.000017 15.311894 1.077511 1.563467 20.640615 1.858629 3.294463 20.322922 1.878629 3.283202 -15.225450 -4.823757 -0.293538 -23.641983 2.012982 -3.209291 152.237510 -79.482373 26.720221 -19.578692 62.537121 26.566399 -43.934385 -16.894729 1.690221 10.656196 -7.564697 8.009208 99.930718 71.942966 -80.126291 -44.322804 -42.128227 25.207874 -57.451425 14.318853 -1.990860 8.646239 12.693657 -20.857849 
-101.129467 0.000000 632.730967 0.000000 71.679301 0.000000 -10.899375 84.265767 1.451403 83.290211 4.763782 -179.916125 125.765681 -9.869874 178.027867 -40.493896 3.021720 1.706903 82.880805 -4.130010 -12.864233 21.454552 0.003096 0.000002 163.674778 -2.730989 -173.899005 -46.430040 1.520844 11.715714 105.934951 -7.677171 14.068891 21.454560 -0.003110 -0.000018 15.425881 0.999292 1.783118 20.868289 1.660410 3.717533 20.550789 1.682957 3.707467 -15.784359 -5.339879 0.014856 -24.157698 2.178460 -3.235198 153.000694 -79.465728 25.947891 -18.211573 62.465060 28.083856 -45.273729 -16.684669 1.715731 10.395728 -6.251363 8.987335 97.915656 71.799794 -82.150631 -44.809261 -42.410697 26.185265 -57.547035 14.286651 -1.992127 8.338220 13.267512 -19.964824 
-101.038660 0.000000 632.461767 0.000000 71.245901 0.000000 -11.222004 84.112747 1.423389 82.544517 5.038531 178.991901 127.088086 -10.560898 179.030419 -35.437076 2.514691 2.586637 83.918326 -4.926975 -14.328362 21.454553 0.003101 0.000003 162.526810 -3.061993 -174.453987 -46.974519 1.377471 11.260543 106.069101 -7.382757 14.007891 21.454562 -0.003116 -0.000019 15.542172 0.890122 1.960419 21.098200 1.407687 4.050459 20.780871 1.432230 4.041921 -16.222673 -5.946810 0.461497 -24.702236 2.391005 -3.186901 154.316278 -79.404386 24.618094 -16.691769 62.483894 29.383821 -46.679411 -16.479839 1.744412 10.249673 -5.405092 9.478359 95.698719 71.562484 -84.382906 -45.302926 -42.667409 26.818752 -57.496648 14.252643 -1.988016 7.997182 13.945232 -18.914699 
-100.937071 0.000000 632.156725 0.000000 70.817034 0.000000 -11.617366 83.883095 1.391454 81.894903 5.175153 177.931511 128.279553 -11.099770 -179.400635 -32.210526 1.784975 2.716528 83.600068 -5.243704 -15.210779 21.454553 0.003100 0.000002 161.272500 -3.162194 -174.682830 -47.933183 1.171628 10.618896 106.314044 -6.973894 13.913474 21.454559 -0.003107 -0.000017 15.659860 0.762732 2.059486 21.328984 1.132617 4.224326 21.011755 1.158207 4.217448 -16.479617 -6.553455 1.020616 -25.266121 2.617786 -3.031181 155.899776 -79.325874 23.016890 -14.993295 62.615911 30.600417 -48.060778 -16.287186 1.774407 10.222561 -5.087511 9.400406 93.520214 71.257806 -86.580569 -45.858598 -42.856869 27.116687 -57.269913 14.219601 -1.977605 7.726351 14.556296 -17.909822 
-100.828648 0.000000 631.821765 0.000000 70.395419 0.000000 -12.074422 83.636757 1.388105 81.337743 5.092336 177.081827 129.287994 -11.329690 -177.549210 -29.783739 0.906635 2.560658 80.673201 -5.365657 -14.522254 21.454555 0.003098 0.000000 160.003328 -3.007798 -174.691186 -49.086321 0.919331 9.950754 106.629497 -6.552585 13.809752 21.454557 -0.003098 -0.000015 15.776106 0.618422 2.050971 21.555512 0.843831 4.181190 21.238291 0.869173 4.176052 -16.540811 -7.069906 1.633269 -25.841168 2.832173 -2.770355 157.434055 -79.248719 21.464723 -13.231138 62.812528 31.776061 -49.358388 -16.124236 1.804547 10.238910 -5.281266 8.927628 91.706036 70.936183 -88.414964 -46.466216 -42.946285 27.128532 -56.898316 14.178330 -1.961403 7.585042 14.952237 -17.129952 
-100.710272 0.000000 631.468105 0.000000 69.983311 0.000000 -12.566633 83.422123 1.425911 80.860085 4.745507 176.586768 130.108606 -11.162112 -175.826561 -27.099675 -0.011316 2.587993 74.582165 -5.417921 -11.890730 21.454556 0.003101 -0.000001 158.790869 -2.605797 -174.622865 -50.257987 0.658579 9.414891 106.964157 -6.220414 13.732039 21.454557 -0.003103 -0.000016 15.887816 0.460525 1.923179 21.772532 0.550877 3.898541 21.455228 0.574535 3.895168 -16.419460 -7.421957 2.232450 -26.418389 3.013665 -2.425379 158.623538 -79.191425 20.260798 -11.556456 63.007866 32.915879 -50.533340 -16.007684 1.834708 10.224883 -5.925400 8.291139 90.521268 70.657523 -89.618323 -47.084287 -42.924938 26.919914 -56.436850 14.120919 -1.940965 7.603989 15.016854 -16.724384 
-100.579818 0.000000 631.107635 0.000000 69.582033 0.000000 -13.028364 83.158249 1.473228 80.459658 4.297495 176.433392 130.556524 -10.853189 -174.745131 -24.796032 -0.705841 2.686846 67.832247 -5.397885 -9.476172 21.454557 0.003100 -0.000001 157.633362 -2.100295 -174.597667 -51.564539 0.455608 9.072249 107.401889 -6.028554 13.736924 21.454560 -0.003113 -0.000018 15.992154 0.311592 1.728537 21.975978 0.289195 3.484646 21.658535 0.310368 3.482853 -16.201301 -7.594358 2.751903 -26.983438 3.160397 -2.057520 159.243304 -79.165213 19.633168 -10.087200 63.129224 34.005732 -51.597085 -15.940055 1.865272 10.164274 -6.863361 7.699693 90.022990 70.460891 -90.131699 -47.607514 -42.861256 26.580566 -55.972569 14.056629 -1.920145 7.755436 14.743824 -16.739481 
-100.438493 0.000000 630.750716 0.000000 69.192087 0.000000 -13.403963 82.773698 1.500400 80.124074 3.915969 176.572868 130.434365 -10.644769 -174.670504 -23.720140 -0.952612 2.724917 63.078933 -5.770216 -9.174414 21.454553 0.003088 -0.000002 156.514397 -1.644194 -174.709049 -53.117153 0.362581 8.954718 107.998107 -6.007427 13.871988 21.454561 -0.003117 -0.000019 16.087679 0.192585 1.526899 22.163727 0.089142 3.062282 21.846130 0.107756 3.061701 -15.987305 -7.599575 3.136717 -27.519704 3.277584 -1.736271 159.140308 -79.177909 19.737004 -8.979507 63.110794 34.956063 -52.580284 -15.916474 1.896556 10.067417 -7.899866 7.289287 90.179476 70.361608 -89.985856 -47.933136 -42.830778 26.211885 -55.584617 14.001635 -1.902722 8.000063 14.182208 -17.157501 
-100.288326 0.000000 630.405879 0.000000 68.813561 0.000000 -13.712493 82.364388 1.522798 79.790430 3.587142 176.978803 129.747666 -10.408091 -175.257682 -23.897582 -0.918482 2.905667 60.629450 -6.297239 -9.520599 21.454551 0.003078 -0.000003 155.439847 -1.279008 -174.989023 -54.712096 0.352469 9.080166 108.559196 -6.151536 14.127120 21.454562 -0.003116 -0.000019 16.179810 0.099716 1.343387 22.346067 -0.061846 2.680636 22.028338 -0.045544 2.680974 -15.865501 -7.509481 3.371567 -28.005812 3.384018 -1.523651 158.391716 -79.233173 20.493774 -8.538343 62.919182 35.432555 -53.540622 -15.916653 1.929260 10.023976 -8.780651 6.921274 90.770554 70.322525 -89.402822 -48.029742 -42.865136 25.931640 -55.288741 13.982252 -1.891010 8.289355 13.483894 -17.806868 
-100.131273 0.000000 630.079430 0.000000 68.446879 0.000000 -13.981787 82.038390 1.561000 79.401621 3.276857 177.607303 128.601359 -10.002308 -176.099038 -25.070327 -0.797215 3.430353 60.089774 -6.451373 -8.848512 21.454551 0.003082 -0.000001 154.436859 -1.027834 -175.441481 -56.098783 0.384074 9.443984 108.904308 -6.438096 14.470285 21.454560 -0.003114 -0.000019 16.274364 0.025418 1.196424 22.534017 -0.182604 2.374797 22.216204 -0.168135 2.375872 -15.895716 -7.414581 3.461085 -28.425828 3.502026 -1.469538 157.167321 -79.327321 21.730976 -8.994987 62.550352 35.129315 -54.534904 -15.916670 1.963532 10.133649 -9.255112 6.359880 91.526750 70.291974 -88.654767 -47.892519 -42.981999 25.831928 -55.060064 14.022646 -1.885716 8.575376 12.821922 -18.470526 
-99.969068 0.000000 629.773807 0.000000 68.093011 0.000000 -14.199199 81.785019 1.607586 78.977418 3.045634 178.317612 127.284044 -9.578798 -177.234557 -26.659112 -0.506863 4.228260 60.504424 -6.522738 -7.725799 21.454553 0.003092 0.000001 153.593782 -0.950697 -176.017117 -57.156453 0.432461 9.959783 109.155609 -6.818432 14.835615 21.454558 -0.003111 -0.000018 16.371612 -0.028392 1.112558 22.727791 -0.274703 2.197777 22.409941 -0.261286 2.199412 -16.033913 -7.420560 3.453139 -28.790609 3.656841 -1.581913 155.818195 -79.441610 23.092985 -10.200827 62.078576 34.034063 -55.590021 -15.893690 1.998969 10.438862 -9.147187 5.269662 92.151297 70.214854 -88.041730 -47.553115 -43.186575 25.888064 -54.774663 14.128264 -1.882838 8.836549 12.357765 -18.905487 
-99.803110 0.000000 629.487369 0.000000 67.753494 0.000000 -14.357007 81.573910 1.652868 78.553961 2.949329 178.965302 126.079853 -9.306791 -178.676922 -28.102365 0.028308 5.130447 60.959563 -6.862953 -7.015382 21.454551 0.003099 0.000001 152.981849 -1.090482 -176.659911 -57.828784 0.470712 10.532198 109.458280 -7.241284 15.167858 21.454557 -0.003107 -0.000017 16.469861 -0.060514 1.110247 22.923716 -0.339694 2.186423 22.605866 -0.326345 2.188449 -16.205039 -7.614481 3.404913 -29.119950 3.866147 -1.846407 154.723702 -79.558122 24.196013 -11.895267 61.591465 32.233350 -56.723036 -15.826868 2.034684 10.928077 -8.350873 3.380334 92.386987 70.050160 -87.823446 -47.070154 -43.466592 26.036980 -54.287056 14.295439 -1.876933 9.067831 12.215254 -18.900718 
-99.633695 0.000000 629.218517 0.000000 67.430773 0.000000 -14.494724 81.414726 1.703743 78.141360 2.941197 179.493285 125.066309 -9.133700 -179.919491 -29.244441 0.624236 5.861520 61.298843 -7.208086 -6.573695 21.454551 0.003099 -0.000000 152.535267 -1.397987 -177.344523 -58.187309 0.470311 11.109140 109.741898 -7.665433 15.493524 21.454558 -0.003104 -0.000017 16.565191 -0.081790 1.167356 23.113708 -0.394988 2.294788 22.795883 -0.380989 2.297145 -16.315102 -7.992387 3.364479 -29.441492 4.113184 -2.200230 154.133133 -79.659015 24.788698 -13.748974 61.184942 29.918314 -57.942133 -15.702233 2.070349 11.482318 -6.989871 0.752512 92.172628 69.803943 -88.060110 -46.574253 -43.749546 26.181017 -53.464818 14.502874 -1.862717 9.318389 12.383918 -18.399666 
